<?xml version="1.0" encoding="UTF-8" standalone="no"?><!DOCTYPE svg PUBLIC "-//W3C//DTD SVG 1.1//EN" "http://www.w3.org/Graphics/SVG/1.1/DTD/svg11.dtd"><svg width="100%" height="100%" viewBox="0 0 394 298" version="1.1" xmlns="http://www.w3.org/2000/svg" xmlns:xlink="http://www.w3.org/1999/xlink" xml:space="preserve" xmlns:serif="http://www.serif.com/" style="fill-rule:evenodd;clip-rule:evenodd;stroke-linejoin:round;stroke-miterlimit:2;"><path d="M393.645,80.973l0,216.788l-393.645,0l0,-66.422l0.486,-0.001l0.002,0.054l27.198,-0.091l254.008,-0.349c20.74,-0.028 37.542,-16.84 37.558,-37.579c0.002,-2.993 0.005,-6.028 0.007,-9.046c0.009,-11.007 -4.356,-21.566 -12.133,-29.354c-7.777,-7.788 -18.33,-12.167 -29.337,-12.173c-5.645,-0.003 -11.348,-0.007 -16.736,-0.01c-16.577,-0.01 -30.02,-13.433 -30.053,-30.01c0,-0.254 -0.001,-0.508 -0.001,-0.762c-0.034,-16.831 13.569,-30.509 30.399,-30.57l132.247,-0.475Zm-282.186,137.839l-111.459,0.685l0,-219.497l393.645,0l0,67.275l-158.606,-0.712c-10.313,-0.046 -20.218,4.026 -27.515,11.314c-7.297,7.288 -11.383,17.187 -11.351,27.5c0.011,3.382 0.022,6.803 0.032,10.184c0.068,21.498 17.495,38.9 38.993,38.938c5.702,0.01 11.521,0.02 17.068,0.03c8.49,0.015 16.621,3.428 22.579,9.478c5.957,6.049 9.244,14.232 9.128,22.722c-0.003,0.183 -0.005,0.367 -0.008,0.551c-0.231,16.928 -13.965,30.558 -30.894,30.662l-93.553,0.575c0.839,-0.74 1.655,-1.51 2.447,-2.31c9.312,-9.406 14.496,-22.131 14.408,-35.366c-0.201,-29.959 -0.443,-66.176 -0.582,-87.028c-0.069,-10.357 6.003,-19.771 15.466,-23.98c2.663,-1.184 4.589,-2.041 4.589,-2.041c0,0 -15.133,-0.347 -29.486,-0.677c-6.629,-0.152 -13.038,2.385 -17.768,7.033c-4.729,4.649 -7.376,11.013 -7.339,17.644c0.146,25.708 0.372,65.683 0.532,93.896c0.049,8.766 -3.386,17.193 -9.55,23.426c-5.565,5.628 -12.943,9.051 -20.776,9.698Z"/></svg>